<?xml version="1.0" encoding="UTF-8" standalone="no"?>
<!DOCTYPE svg PUBLIC "-//W3C//DTD SVG 1.1//EN"
 "http://www.w3.org/Graphics/SVG/1.1/DTD/svg11.dtd">
<!-- Generated by graphviz version 2.40.1 (20161225.0304)
 -->
<!-- Title: dependencies Pages: 1 -->
<svg width="1234pt" height="284pt"
 viewBox="0.00 0.00 1234.00 284.00" xmlns="http://www.w3.org/2000/svg" xmlns:xlink="http://www.w3.org/1999/xlink">
<g id="graph0" class="graph" transform="scale(1 1) rotate(0) translate(4 280)">
<title>dependencies</title>
<polygon fill="#ffffff" stroke="transparent" points="-4,4 -4,-280 1230,-280 1230,4 -4,4"/>
<text text-anchor="start" x="592.0091" y="-42.4" font-family="sans-serif" font-weight="bold" font-size="14.00" fill="#000000">Legend</text>
<polygon fill="#ffffb3" stroke="transparent" points="379,-10 379,-30 399,-30 399,-10 379,-10"/>
<text text-anchor="start" x="402.629" y="-15.4" font-family="sans-serif" font-size="14.00" fill="#000000"> &#160;Declarations</text>
<polygon fill="#8dd3c7" stroke="transparent" points="492,-10 492,-30 512,-30 512,-10 492,-10"/>
<text text-anchor="start" x="515.7251" y="-15.4" font-family="sans-serif" font-size="14.00" fill="#000000"> &#160;Module</text>
<polygon fill="#80b1d3" stroke="transparent" points="578,-10 578,-30 598,-30 598,-10 578,-10"/>
<text text-anchor="start" x="601.7812" y="-15.4" font-family="sans-serif" font-size="14.00" fill="#000000"> &#160;Bootstrap</text>
<polygon fill="#fdb462" stroke="transparent" points="675,-10 675,-30 695,-30 695,-10 675,-10"/>
<text text-anchor="start" x="698.6732" y="-15.4" font-family="sans-serif" font-size="14.00" fill="#000000"> &#160;Providers</text>
<polygon fill="#fb8072" stroke="transparent" points="771,-10 771,-30 791,-30 791,-10 771,-10"/>
<text text-anchor="start" x="794.7258" y="-15.4" font-family="sans-serif" font-size="14.00" fill="#000000"> &#160;Exports</text>
<g id="clust1" class="cluster">
<title>cluster_AppModule</title>
<polygon fill="none" stroke="#000000" stroke-dasharray="1,5" points="8,-70 8,-268 1218,-268 1218,-70 8,-70"/>
</g>
<g id="clust2" class="cluster">
<title>cluster_AppModule_declarations</title>
<polygon fill="none" stroke="#000000" points="188,-78 188,-130 1210,-130 1210,-78 188,-78"/>
</g>
<g id="clust12" class="cluster">
<title>cluster_AppModule_bootstrap</title>
<polygon fill="none" stroke="#000000" points="585,-208 585,-260 709,-260 709,-208 585,-208"/>
</g>
<g id="clust13" class="cluster">
<title>cluster_AppModule_providers</title>
<polygon fill="none" stroke="#000000" points="16,-78 16,-130 180,-130 180,-78 16,-78"/>
</g>
<!-- AppComponent -->
<g id="node1" class="node">
<title>AppComponent</title>
<polygon fill="#ffffb3" stroke="#000000" points="1201.9399,-122 1096.0601,-122 1096.0601,-86 1201.9399,-86 1201.9399,-122"/>
<text text-anchor="middle" x="1149" y="-99.8" font-family="Times,serif" font-size="14.00" fill="#000000">AppComponent</text>
</g>
<!-- AppModule -->
<g id="node8" class="node">
<title>AppModule</title>
<polygon fill="#8dd3c7" stroke="#000000" points="688.6571,-187 685.6571,-191 664.6571,-191 661.6571,-187 605.3429,-187 605.3429,-151 688.6571,-151 688.6571,-187"/>
<text text-anchor="middle" x="647" y="-164.8" font-family="Times,serif" font-size="14.00" fill="#000000">AppModule</text>
</g>
<!-- AppComponent&#45;&gt;AppModule -->
<g id="edge1" class="edge">
<title>AppComponent&#45;&gt;AppModule</title>
<path fill="none" stroke="#000000" d="M1149,-122.2921C1149,-144.2057 1149,-178 1149,-178 1149,-178 698.9368,-178 698.9368,-178"/>
<polygon fill="#000000" stroke="#000000" points="698.9368,-174.5001 688.9368,-178 698.9368,-181.5001 698.9368,-174.5001"/>
</g>
<!-- DebtsComponent -->
<g id="node2" class="node">
<title>DebtsComponent</title>
<polygon fill="#ffffb3" stroke="#000000" points="1077.9888,-122 964.0112,-122 964.0112,-86 1077.9888,-86 1077.9888,-122"/>
<text text-anchor="middle" x="1021" y="-99.8" font-family="Times,serif" font-size="14.00" fill="#000000">DebtsComponent</text>
</g>
<!-- DebtsComponent&#45;&gt;AppModule -->
<g id="edge2" class="edge">
<title>DebtsComponent&#45;&gt;AppModule</title>
<path fill="none" stroke="#000000" d="M1021,-122.1061C1021,-141.3391 1021,-169 1021,-169 1021,-169 698.8139,-169 698.8139,-169"/>
<polygon fill="#000000" stroke="#000000" points="698.8139,-165.5001 688.8139,-169 698.8139,-172.5001 698.8139,-165.5001"/>
</g>
<!-- DebtsDetailComponent -->
<g id="node3" class="node">
<title>DebtsDetailComponent</title>
<polygon fill="#ffffb3" stroke="#000000" points="946.1965,-122 797.8035,-122 797.8035,-86 946.1965,-86 946.1965,-122"/>
<text text-anchor="middle" x="872" y="-99.8" font-family="Times,serif" font-size="14.00" fill="#000000">DebtsDetailComponent</text>
</g>
<!-- DebtsDetailComponent&#45;&gt;AppModule -->
<g id="edge3" class="edge">
<title>DebtsDetailComponent&#45;&gt;AppModule</title>
<path fill="none" stroke="#000000" d="M872,-122.027C872,-138.3976 872,-160 872,-160 872,-160 698.7935,-160 698.7935,-160"/>
<polygon fill="#000000" stroke="#000000" points="698.7935,-156.5001 688.7935,-160 698.7934,-163.5001 698.7935,-156.5001"/>
</g>
<!-- HeaderComponent -->
<g id="node4" class="node">
<title>HeaderComponent</title>
<polygon fill="#ffffb3" stroke="#000000" points="779.7437,-122 658.2563,-122 658.2563,-86 779.7437,-86 779.7437,-122"/>
<text text-anchor="middle" x="719" y="-99.8" font-family="Times,serif" font-size="14.00" fill="#000000">HeaderComponent</text>
</g>
<!-- HeaderComponent&#45;&gt;AppModule -->
<g id="edge4" class="edge">
<title>HeaderComponent&#45;&gt;AppModule</title>
<path fill="none" stroke="#000000" d="M673.4783,-122.1061C673.4783,-122.1061 673.4783,-140.991 673.4783,-140.991"/>
<polygon fill="#000000" stroke="#000000" points="669.9783,-140.9909 673.4783,-150.991 676.9783,-140.991 669.9783,-140.9909"/>
</g>
<!-- LoadingComponent -->
<g id="node5" class="node">
<title>LoadingComponent</title>
<polygon fill="#ffffb3" stroke="#000000" points="639.9902,-122 512.0098,-122 512.0098,-86 639.9902,-86 639.9902,-122"/>
<text text-anchor="middle" x="576" y="-99.8" font-family="Times,serif" font-size="14.00" fill="#000000">LoadingComponent</text>
</g>
<!-- LoadingComponent&#45;&gt;AppModule -->
<g id="edge5" class="edge">
<title>LoadingComponent&#45;&gt;AppModule</title>
<path fill="none" stroke="#000000" d="M622.5835,-122.1061C622.5835,-122.1061 622.5835,-140.991 622.5835,-140.991"/>
<polygon fill="#000000" stroke="#000000" points="619.0835,-140.9909 622.5835,-150.991 626.0835,-140.991 619.0835,-140.9909"/>
</g>
<!-- LoginComponent -->
<g id="node6" class="node">
<title>LoginComponent</title>
<polygon fill="#ffffb3" stroke="#000000" points="494.2758,-122 379.7242,-122 379.7242,-86 494.2758,-86 494.2758,-122"/>
<text text-anchor="middle" x="437" y="-99.8" font-family="Times,serif" font-size="14.00" fill="#000000">LoginComponent</text>
</g>
<!-- LoginComponent&#45;&gt;AppModule -->
<g id="edge6" class="edge">
<title>LoginComponent&#45;&gt;AppModule</title>
<path fill="none" stroke="#000000" d="M437,-122.027C437,-138.3976 437,-160 437,-160 437,-160 595.2597,-160 595.2597,-160"/>
<polygon fill="#000000" stroke="#000000" points="595.2597,-163.5001 605.2597,-160 595.2596,-156.5001 595.2597,-163.5001"/>
</g>
<!-- PageNotFoundComponent -->
<g id="node7" class="node">
<title>PageNotFoundComponent</title>
<polygon fill="#ffffb3" stroke="#000000" points="361.8243,-122 196.1757,-122 196.1757,-86 361.8243,-86 361.8243,-122"/>
<text text-anchor="middle" x="279" y="-99.8" font-family="Times,serif" font-size="14.00" fill="#000000">PageNotFoundComponent</text>
</g>
<!-- PageNotFoundComponent&#45;&gt;AppModule -->
<g id="edge7" class="edge">
<title>PageNotFoundComponent&#45;&gt;AppModule</title>
<path fill="none" stroke="#000000" d="M279,-122.1061C279,-141.3391 279,-169 279,-169 279,-169 595.144,-169 595.144,-169"/>
<polygon fill="#000000" stroke="#000000" points="595.144,-172.5001 605.144,-169 595.144,-165.5001 595.144,-172.5001"/>
</g>
<!-- AppComponent  -->
<g id="node9" class="node">
<title>AppComponent </title>
<polygon fill="#80b1d3" stroke="#000000" points="701.439,-252 592.561,-252 592.561,-216 701.439,-216 701.439,-252"/>
<text text-anchor="middle" x="647" y="-229.8" font-family="Times,serif" font-size="14.00" fill="#000000">AppComponent </text>
</g>
<!-- AppModule&#45;&gt;AppComponent  -->
<g id="edge8" class="edge">
<title>AppModule&#45;&gt;AppComponent </title>
<path fill="none" stroke="#000000" stroke-dasharray="1,5" d="M647,-187.1061C647,-187.1061 647,-205.991 647,-205.991"/>
<polygon fill="#000000" stroke="#000000" points="643.5001,-205.9909 647,-215.991 650.5001,-205.991 643.5001,-205.9909"/>
</g>
<!-- ErrorInterceptor -->
<g id="node10" class="node">
<title>ErrorInterceptor</title>
<ellipse fill="#fdb462" stroke="#000000" cx="98" cy="-104" rx="73.5329" ry="18"/>
<text text-anchor="middle" x="98" y="-99.8" font-family="Times,serif" font-size="14.00" fill="#000000">ErrorInterceptor</text>
</g>
<!-- ErrorInterceptor&#45;&gt;AppModule -->
<g id="edge9" class="edge">
<title>ErrorInterceptor&#45;&gt;AppModule</title>
<path fill="none" stroke="#000000" d="M98,-122.2921C98,-144.2057 98,-178 98,-178 98,-178 595.2852,-178 595.2852,-178"/>
<polygon fill="#000000" stroke="#000000" points="595.2852,-181.5001 605.2852,-178 595.2851,-174.5001 595.2852,-181.5001"/>
</g>
</g>
</svg>
